<?xml version="1.0" standalone="no"?>
<!DOCTYPE svg PUBLIC "-//W3C//DTD SVG 20010904//EN"
 "http://www.w3.org/TR/2001/REC-SVG-20010904/DTD/svg10.dtd">
<svg version="1.0" xmlns="http://www.w3.org/2000/svg"
 width="512.000000pt" height="512.000000pt" viewBox="0 0 512.000000 512.000000"
 preserveAspectRatio="xMidYMid meet">

<g transform="translate(0.000000,512.000000) scale(0.100000,-0.100000)"
fill="#000000" stroke="none">
<path d="M1581 5109 c-705 -74 -1313 -541 -1509 -1159 -165 -520 -32 -1091
347 -1492 l90 -95 -39 -219 c-22 -120 -40 -239 -40 -263 0 -91 79 -171 171
-171 32 0 140 34 368 115 l323 115 98 -20 c54 -11 109 -20 123 -20 l24 0 6
-162 c3 -92 13 -196 22 -238 107 -491 434 -896 910 -1130 382 -188 825 -245
1247 -159 l107 22 313 -111 c172 -62 328 -114 345 -118 74 -15 160 32 189 103
21 48 18 87 -25 328 l-40 220 58 60 c226 235 361 491 423 800 32 155 31 415 0
561 -31 146 -65 243 -133 379 -127 259 -320 473 -579 647 -100 67 -313 170
-430 208 -98 33 -302 80 -344 80 l-23 0 -6 163 c-3 93 -13 194 -22 237 -46
205 -139 418 -258 587 -81 115 -278 311 -395 393 -379 266 -852 388 -1321 339z
m390 -170 c810 -82 1439 -703 1439 -1419 l0 -107 -162 -6 c-181 -6 -290 -22
-450 -68 -588 -165 -1046 -601 -1202 -1143 -14 -48 -26 -97 -26 -109 0 -18 -4
-19 -61 -13 -33 3 -88 13 -122 22 -34 9 -75 16 -92 16 -25 -1 -550 -180 -661
-227 -31 -13 -34 -12 -34 3 0 9 20 129 44 266 30 163 42 256 36 270 -4 12 -40
53 -80 91 -154 149 -276 334 -344 523 -148 414 -99 834 142 1197 237 358 634
609 1079 684 190 32 323 38 494 20z m1715 -1733 c646 -137 1124 -589 1241
-1174 26 -130 23 -365 -6 -502 -58 -272 -189 -512 -386 -705 -45 -44 -87 -90
-94 -102 -9 -18 -3 -71 35 -280 25 -142 48 -261 51 -265 8 -15 -15 -8 -248 75
-129 46 -282 101 -341 122 l-108 38 -82 -21 c-152 -38 -238 -47 -428 -46 -221
2 -360 23 -544 84 -566 189 -959 619 -1052 1153 -26 146 -15 378 24 527 70
267 195 476 404 675 206 196 453 330 747 405 157 40 253 49 466 45 167 -3 220
-7 321 -29z"/>
<path d="M2345 4166 c-11 -7 -218 -266 -460 -574 l-440 -561 -106 105 c-90 89
-111 104 -138 104 -23 0 -42 -9 -62 -29 -53 -54 -46 -67 123 -238 140 -141
155 -153 188 -153 28 0 43 8 67 33 17 17 188 232 380 477 616 784 573 727 573
766 0 66 -73 107 -125 70z"/>
<path d="M2672 2447 c-15 -16 -22 -36 -22 -62 0 -37 10 -49 277 -317 l277
-278 -277 -278 c-161 -162 -277 -286 -278 -297 -4 -64 29 -105 84 -105 28 0
63 32 312 280 l280 280 275 -275 c189 -188 284 -276 304 -281 58 -14 116 44
102 102 -5 20 -93 115 -281 304 l-275 275 280 280 c252 253 280 284 280 313 0
46 -38 82 -87 82 -35 0 -50 -13 -315 -277 l-278 -277 -278 277 c-272 270 -279
277 -319 277 -28 0 -46 -6 -61 -23z"/>
</g>
</svg>
