<?xml version="1.0"?>
<svg xmlns="http://www.w3.org/2000/svg" viewBox="0 0 64 64">
    <path d="M 31 2 C 15.009 2 2 15.009 2 31 C 2 46.991 15.009 60 31 60 C 46.991 60 60 46.991 60 31 C 60 15.009 46.991 2 31 2 z M 31 4 C 45.888 4 58 16.112 58 31 C 58 45.888 45.888 58 31 58 C 16.112 58 4 45.888 4 31 C 4 16.112 16.112 4 31 4 z M 31 8 C 18.318 8 8 18.318 8 31 C 8 43.682 18.318 54 31 54 C 43.682 54 54 43.682 54 31 C 54 23.896 50.791219 17.30125 45.199219 12.90625 C 44.765219 12.56525 44.137875 12.638219 43.796875 13.074219 C 43.455875 13.508219 43.530844 14.136516 43.964844 14.478516 C 49.071844 18.492516 52 24.514 52 31 C 52 42.58 42.58 52 31 52 C 19.42 52 10 42.58 10 31 C 10 19.42 19.42 10 31 10 C 32.028 10 33.059453 10.075656 34.064453 10.222656 C 34.611453 10.304656 35.120219 9.9249062 35.199219 9.3789062 C 35.279219 8.8319062 34.901469 8.3231406 34.355469 8.2441406 C 33.253469 8.0821406 32.125 8 31 8 z M 38.533203 9.34375 C 38.144188 9.3631094 37.785078 9.6095469 37.642578 9.9980469 C 37.453578 10.516047 37.720281 11.09025 38.238281 11.28125 C 39.021281 11.56825 39.798828 11.908969 40.548828 12.292969 C 40.694828 12.366969 40.850906 12.400391 41.003906 12.400391 C 41.367906 12.400391 41.717531 12.201469 41.894531 11.855469 C 42.145531 11.363469 41.950984 10.761766 41.458984 10.509766 C 40.636984 10.089766 39.784781 9.7173437 38.925781 9.4023438 C 38.796531 9.3550937 38.662875 9.3372969 38.533203 9.34375 z M 31 18 A 2 2 0 0 0 29 20 A 2 2 0 0 0 31 22 A 2 2 0 0 0 33 20 A 2 2 0 0 0 31 18 z M 29.039062 24 C 28.559062 24 28.080078 24.4 28.080078 25 C 28.080078 25.6 28.439062 26 29.039062 26 L 30 26 L 30 40 L 28.039062 40 C 27.559062 40 27.080078 40.4 27.080078 41 C 27.080078 41.6 27.439062 42 28.039062 42 L 34 42 C 34.6 42 34.960938 41.6 34.960938 41 C 34.960938 40.4 34.6 40 34 40 L 32 40 L 32 26 L 33 26 C 33.6 26 33.960938 25.6 33.960938 25 C 33.960938 24.4 33.6 24 33 24 L 29.039062 24 z M 13 30 C 12.448 30 12 30.448 12 31 L 12 33 C 12 33.552 12.448 34 13 34 C 13.552 34 14 33.552 14 33 L 14 31 C 14 30.448 13.552 30 13 30 z M 18 30 C 17.448 30 17 30.448 17 31 L 17 33 C 17 33.552 17.448 34 18 34 C 18.552 34 19 33.552 19 33 L 19 31 C 19 30.448 18.552 30 18 30 z M 23 30 C 22.448 30 22 30.448 22 31 L 22 33 C 22 33.552 22.448 34 23 34 C 23.552 34 24 33.552 24 33 L 24 31 C 24 30.448 23.552 30 23 30 z M 39 30 C 38.448 30 38 30.448 38 31 L 38 33 C 38 33.552 38.448 34 39 34 C 39.552 34 40 33.552 40 33 L 40 31 C 40 30.448 39.552 30 39 30 z M 44 30 C 43.448 30 43 30.448 43 31 L 43 33 C 43 33.552 43.448 34 44 34 C 44.552 34 45 33.552 45 33 L 45 31 C 45 30.448 44.552 30 44 30 z M 49 30 C 48.448 30 48 30.448 48 31 L 48 33 C 48 33.552 48.448 34 49 34 C 49.552 34 50 33.552 50 33 L 50 31 C 50 30.448 49.552 30 49 30 z"/>
</svg>
