<?xml version="1.0" standalone="no"?>
<!DOCTYPE svg PUBLIC "-//W3C//DTD SVG 20010904//EN"
 "http://www.w3.org/TR/2001/REC-SVG-20010904/DTD/svg10.dtd">
<svg version="1.0" xmlns="http://www.w3.org/2000/svg"
 width="934.000000pt" height="854.000000pt" viewBox="0 0 934.000000 854.000000"
 preserveAspectRatio="xMidYMid meet">

<g transform="translate(0.000000,854.000000) scale(0.100000,-0.100000)"
fill="#000000" stroke="none">
<path d="M3988 7899 c-30 -22 -65 -75 -87 -129 -9 -23 -14 -80 -15 -171 l-1
-135 -79 -85 c-223 -240 -391 -602 -461 -994 -20 -115 -45 -374 -45 -474 0
-96 22 -298 44 -406 23 -113 44 -180 88 -288 87 -213 184 -361 338 -515 29
-29 51 -54 49 -55 -2 -1 -39 -19 -81 -40 -55 -28 -93 -55 -129 -95 -197 -216
-139 -590 111 -717 41 -21 68 -27 120 -27 103 -1 182 29 308 119 37 27 67 42
72 37 6 -6 3 -28 -7 -54 -8 -25 -19 -58 -24 -75 -4 -16 -15 -55 -24 -85 -21
-72 -58 -217 -78 -305 -8 -38 -21 -95 -29 -125 -18 -75 -17 -593 1 -705 45
-280 88 -455 165 -685 70 -209 150 -435 191 -543 21 -54 36 -100 33 -103 -3
-2 -43 5 -89 16 -46 12 -100 25 -119 30 -19 4 -87 16 -150 25 -63 9 -126 20
-140 24 l-25 8 -1 849 c0 467 -1 861 -2 875 -2 29 -27 39 -137 58 -183 32
-244 43 -280 51 -22 5 -96 21 -165 35 -69 14 -145 30 -170 36 -149 34 -385 82
-565 114 -49 9 -99 18 -110 21 -11 2 -57 11 -102 19 -92 17 -61 23 -488 -95
-66 -18 -205 -60 -285 -85 -47 -15 -98 -31 -115 -35 -220 -62 -457 -129 -525
-151 -14 -4 -65 -18 -114 -30 -48 -12 -94 -29 -102 -37 -14 -13 -15 -96 -19
-1644 l0 -93 120 -77 c250 -160 483 -308 570 -360 50 -30 207 -129 350 -219
144 -90 272 -170 285 -178 84 -48 65 -49 191 8 108 50 129 59 182 80 56 23
222 98 317 143 58 28 134 61 170 73 81 29 245 92 285 110 17 7 46 19 65 28 19
8 165 65 324 127 160 62 299 118 310 125 15 9 103 15 306 20 157 4 310 10 340
13 l55 7 -4 604 c-3 410 0 605 7 610 5 3 107 4 226 1 l216 -5 81 -80 81 -80
-4 -560 -3 -560 120 -77 c250 -160 483 -308 570 -360 50 -30 207 -129 350
-219 144 -90 272 -170 285 -178 84 -48 65 -49 191 8 108 50 129 59 182 80 56
23 222 98 317 143 58 28 134 61 170 73 81 29 245 92 285 110 17 7 46 19 65 28
19 8 165 65 324 127 159 61 296 116 305 122 14 9 16 103 15 981 -1 535 -2 984
-3 998 -1 29 -25 39 -136 58 -183 32 -244 43 -280 51 -22 5 -96 21 -165 35
-69 14 -144 30 -167 35 -95 22 -226 50 -323 69 -30 6 -77 15 -105 20 -27 6
-90 17 -140 26 -49 9 -99 18 -110 21 -11 2 -57 11 -102 19 -92 17 -59 22 -368
-62 -90 -25 -104 -29 -202 -56 -29 -9 -53 -11 -53 -7 0 5 6 37 14 72 8 35 20
111 26 169 45 386 -144 897 -429 1162 -28 26 -51 52 -51 56 0 5 10 11 23 15
12 3 60 29 107 57 204 127 416 402 495 646 10 32 33 70 57 95 71 76 107 152
151 319 79 299 77 723 -5 1024 -61 223 -162 416 -269 515 -38 35 -55 60 -74
115 -46 126 -77 177 -156 256 -69 70 -112 99 -125 86 -3 -3 10 -52 30 -108 19
-57 32 -107 29 -111 -2 -5 -21 4 -41 20 -57 43 -221 145 -276 171 -283 131
-595 191 -916 177 -167 -7 -288 -25 -450 -68 -221 -58 -240 -61 -266 -47 -35
18 -51 77 -35 129 7 22 9 45 6 50 -10 17 -69 10 -97 -11z m1208 -159 c174 -31
276 -57 359 -90 130 -52 168 -69 218 -97 33 -18 61 -33 63 -33 2 0 12 -7 22
-16 9 -8 64 -50 122 -93 58 -43 114 -88 124 -100 39 -44 66 -15 66 71 l1 53
17 -30 c9 -16 19 -61 22 -99 5 -68 6 -70 42 -90 21 -12 50 -37 66 -56 32 -39
112 -169 112 -182 0 -5 8 -27 19 -51 33 -74 58 -166 80 -287 18 -100 34 -316
26 -346 -7 -25 -10 -18 -24 56 -22 107 -44 155 -90 186 -58 39 -61 36 -61 -75
0 -55 -4 -102 -8 -105 -4 -2 -16 38 -25 91 -19 99 -73 271 -113 360 -132 288
-472 557 -804 636 -129 31 -173 37 -270 37 -141 0 -210 -14 -475 -100 -238
-77 -272 -84 -395 -84 -118 -1 -156 10 -208 58 -82 76 -129 266 -89 360 l12
28 14 -25 c23 -43 80 -67 159 -67 39 0 83 5 99 11 26 10 112 30 213 50 172 35
578 51 706 29z m221 -391 c236 -60 497 -254 612 -454 52 -90 102 -247 131
-407 26 -143 14 -398 -26 -590 -21 -99 -21 -100 21 -82 50 21 157 18 203 -5
78 -41 124 -114 125 -202 0 -46 -5 -66 -25 -97 -57 -86 -171 -101 -343 -47
-17 5 -22 -2 -38 -57 -63 -215 -238 -438 -455 -581 -138 -90 -331 -166 -490
-192 -114 -19 -388 -19 -529 0 -103 13 -137 19 -318 59 -38 9 -111 16 -160 16
l-91 0 -107 108 c-225 225 -325 406 -399 722 -18 77 -17 477 1 590 17 108 63
297 97 397 46 139 156 343 243 450 174 214 163 204 201 199 19 -2 64 -12 100
-21 77 -20 157 -16 275 16 44 11 91 23 105 26 14 4 81 26 150 50 284 101 327
115 380 123 80 13 246 3 337 -21z m-1444 -36 c20 -28 24 -40 15 -50 -18 -22
-33 -15 -46 20 -26 72 -10 88 31 30z m-103 -45 c0 -43 12 -68 31 -68 29 0 23
-16 -24 -68 -127 -138 -238 -302 -323 -476 -32 -64 -59 -114 -62 -111 -3 3 -1
15 5 28 6 12 18 55 28 96 21 90 93 276 144 372 57 108 160 249 182 249 13 0
19 -7 19 -22z m2438 -2039 c-84 -204 -248 -401 -423 -510 -137 -85 -303 -144
-430 -153 -38 -3 -59 -2 -45 1 14 2 30 8 35 13 6 4 28 13 50 20 22 7 78 33
125 58 254 133 433 303 570 542 48 84 53 89 88 92 20 2 40 1 45 -3 4 -3 -3
-30 -15 -60z m-2005 -661 c58 -25 129 -101 145 -156 36 -118 -12 -226 -137
-311 -90 -61 -187 -78 -257 -45 -68 32 -143 164 -144 251 0 72 93 232 155 266
58 31 157 29 238 -5z m-393 -31 c0 -17 -46 -114 -71 -148 -18 -25 -18 -32 -5
-108 26 -150 89 -251 185 -296 33 -16 61 -32 61 -35 0 -7 -33 -27 -91 -57 -61
-30 -151 -31 -212 -3 -55 26 -133 103 -162 160 -91 181 -31 381 140 461 86 40
155 52 155 26z m1821 -32 c34 -26 41 -33 132 -138 70 -80 169 -252 216 -371
57 -145 88 -276 102 -429 10 -112 9 -150 -4 -247 -9 -63 -26 -147 -38 -186
l-21 -71 -77 -23 c-42 -12 -111 -34 -154 -47 -43 -14 -81 -23 -83 -20 -3 2 7
18 21 35 34 40 78 140 101 227 16 58 19 106 19 275 -1 186 -3 212 -24 280 -31
100 -71 177 -128 247 -98 121 -266 252 -238 186 13 -30 35 -136 35 -170 0 -17
5 -53 10 -80 49 -235 100 -656 100 -824 l0 -100 -32 -30 c-38 -34 -171 -114
-243 -146 -27 -12 -83 -32 -122 -43 -40 -11 -73 -25 -73 -31 0 -6 -4 -7 -10
-4 -5 3 -38 -1 -72 -9 -92 -23 -232 -46 -318 -53 l-75 -5 -35 43 c-19 24 -60
71 -92 105 l-57 60 -7 320 c-4 176 -4 333 0 348 9 38 76 107 232 242 72 62
194 180 271 262 135 144 178 207 222 324 11 29 5 27 166 48 50 6 122 19 160
30 39 10 73 19 76 19 3 1 21 -10 40 -24z m-541 -56 c0 -10 -4 -27 -9 -37 -5
-9 -26 -57 -46 -105 -21 -48 -42 -90 -48 -94 -10 -6 -28 17 -22 27 8 13 -16
153 -30 173 -8 12 -15 25 -15 29 0 11 146 38 163 30 4 -2 7 -12 7 -23z m-280
-8 c0 -6 -5 -13 -11 -17 -17 -10 -79 -112 -79 -129 0 -26 -22 -12 -45 29 -23
41 -82 106 -96 106 -5 0 -9 5 -9 10 0 6 47 10 120 10 68 0 120 -4 120 -9z
m-291 -169 c40 -74 28 -277 -25 -441 -19 -58 -25 -66 -35 -50 -16 26 -4 253
22 424 15 91 20 101 38 67z m361 -32 c0 -24 -56 -91 -149 -177 -55 -51 -104
-93 -109 -93 -13 0 -26 168 -17 209 3 17 11 33 16 36 17 11 48 -15 60 -50 16
-43 27 -44 65 -4 60 64 134 108 134 79z m-536 -305 c4 -60 11 -130 17 -155 6
-25 14 -232 18 -460 l8 -415 -46 -70 c-35 -53 -51 -69 -66 -67 -28 4 -177 158
-199 207 -34 72 -32 148 10 365 44 221 137 522 210 677 35 75 39 69 48 -82z
m1303 -37 c-3 -8 -6 -5 -6 6 -1 11 2 17 5 13 3 -3 4 -12 1 -19z m49 -225 c4
-29 11 -53 16 -53 5 0 7 19 4 43 -10 81 -15 142 -9 122 3 -11 9 -22 14 -25 5
-3 8 -51 7 -105 -1 -55 -1 -152 -1 -215 0 -63 -1 -97 -3 -75 -11 113 -33 257
-54 365 -6 30 -13 75 -15 100 -4 36 -1 30 15 -30 11 -41 23 -99 26 -127z
m-3384 -372 c57 -10 137 -24 178 -30 128 -20 234 -42 269 -57 18 -8 53 -14 78
-14 24 0 57 -7 72 -15 16 -8 57 -19 92 -25 67 -12 82 -15 249 -49 58 -11 134
-26 170 -32 36 -6 75 -15 88 -20 13 -5 34 -9 47 -9 24 0 42 -16 31 -27 -3 -3
-22 -9 -43 -13 -21 -4 -65 -15 -98 -25 -33 -9 -73 -20 -90 -25 -16 -5 -70 -20
-120 -35 -139 -41 -241 -65 -262 -63 -20 3 -52 -6 -223 -59 -63 -19 -144 -44
-180 -55 -111 -34 -364 -118 -385 -128 -76 -34 -128 -34 -235 0 -14 5 -72 20
-130 35 -119 31 -250 73 -265 84 -5 5 -46 14 -89 21 -44 6 -89 16 -100 20 -31
13 -142 44 -296 85 -138 37 -199 56 -204 64 -5 8 458 141 719 207 38 10 77 26
86 35 9 9 29 19 45 22 16 3 45 10 64 16 19 5 62 17 95 26 33 9 74 20 90 25 32
9 225 58 237 59 4 1 53 -8 110 -18z m4475 -171 c59 -11 137 -24 173 -31 154
-26 269 -53 322 -75 32 -13 74 -24 95 -24 35 0 90 -8 198 -30 22 -4 87 -17
145 -29 58 -11 134 -26 170 -32 36 -6 75 -15 88 -20 13 -5 34 -9 47 -9 24 0
42 -16 31 -27 -3 -3 -22 -9 -43 -13 -21 -4 -65 -15 -98 -25 -33 -9 -73 -20
-90 -25 -16 -5 -70 -20 -120 -35 -49 -14 -128 -35 -175 -46 -47 -11 -115 -29
-151 -39 -36 -11 -77 -20 -92 -20 -14 0 -36 -4 -49 -10 -13 -5 -77 -25 -143
-45 -145 -44 -412 -132 -440 -145 -76 -34 -128 -34 -235 0 -14 5 -72 20 -130
35 -101 26 -124 33 -270 87 -36 14 -74 23 -85 20 -24 -5 136 -69 240 -96 39
-10 81 -21 95 -26 14 -4 43 -13 65 -19 22 -6 80 -22 129 -37 l89 -26 71 22
c39 13 111 36 160 51 95 31 212 63 401 110 201 50 257 66 320 89 33 13 74 26
90 30 17 5 93 26 170 48 181 52 395 102 435 102 12 0 14 -1838 2 -1855 -4 -6
-158 -71 -342 -144 -184 -74 -436 -176 -560 -228 -412 -173 -461 -193 -470
-193 -11 0 -13 30 -4 54 5 14 101 66 120 66 3 0 24 9 47 19 59 27 688 285 892
366 93 38 183 76 200 85 l30 17 2 509 c2 280 -1 662 -5 849 l-7 340 -40 -3
c-22 -2 -71 -12 -110 -23 -38 -11 -95 -27 -125 -35 -198 -54 -174 -47 -380
-105 -80 -22 -158 -44 -175 -49 -250 -70 -651 -199 -673 -216 -2 -1 -6 -299
-8 -661 -5 -863 -12 -1305 -20 -1326 -8 -23 -51 -22 -58 1 -8 29 -16 456 -22
1231 -3 410 -7 748 -9 751 -6 10 -296 104 -510 165 -56 16 -361 102 -500 141
-126 35 -146 41 -182 52 l-33 11 0 -295 c0 -162 0 -469 0 -684 0 -214 0 -419
0 -455 l0 -64 48 -32 c26 -17 52 -37 57 -43 23 -26 705 -454 902 -567 101 -58
161 -102 167 -122 8 -32 7 -57 -3 -57 -8 0 -79 40 -256 144 -76 44 -416 255
-587 363 -265 168 -384 250 -396 273 -10 20 -12 96 -8 360 3 184 5 544 6 799
l0 464 77 -7 c42 -4 99 -13 127 -21 99 -27 341 -95 371 -104 76 -23 125 -33
137 -28 10 4 10 6 -2 10 -20 6 -157 47 -195 57 -16 5 -73 20 -125 34 -52 15
-119 31 -149 37 -74 14 -101 26 -101 43 0 7 12 16 28 19 158 33 345 83 401
109 52 23 223 68 264 68 31 0 93 24 117 44 8 7 26 16 40 18 24 5 194 50 255
68 34 10 226 58 237 59 4 1 56 -8 115 -19z m-3047 -1042 c0 -508 -4 -928 -8
-933 -4 -6 -158 -71 -342 -144 -184 -74 -436 -176 -560 -228 -412 -173 -461
-193 -470 -193 -11 0 -13 30 -4 54 5 14 101 66 120 66 3 0 24 9 47 19 59 27
688 285 892 366 93 38 183 76 200 85 l30 17 2 509 c2 280 -1 662 -5 849 l-7
340 -40 -3 c-22 -2 -71 -12 -110 -23 -38 -11 -95 -27 -125 -35 -198 -54 -174
-47 -380 -105 -80 -22 -158 -44 -175 -49 -250 -70 -651 -199 -673 -216 -2 -1
-6 -299 -8 -661 -5 -863 -12 -1305 -20 -1326 -8 -23 -51 -22 -58 1 -8 29 -16
456 -22 1231 -3 410 -7 748 -9 751 -7 12 -439 150 -468 150 -9 0 -18 4 -21 9
-3 5 -23 11 -43 13 -21 3 -117 28 -213 57 -96 29 -188 56 -205 61 -16 4 -84
24 -149 44 -66 20 -122 33 -125 29 -3 -5 -5 -344 -3 -755 l2 -747 163 -106
c237 -155 697 -441 844 -526 102 -58 161 -102 167 -122 8 -32 7 -57 -3 -57 -8
0 -79 40 -256 144 -76 44 -416 255 -587 363 -265 168 -384 250 -396 273 -10
20 -12 96 -8 360 3 184 5 543 6 798 l0 462 35 0 c59 0 268 -50 545 -130 19 -5
132 -37 250 -70 118 -33 229 -64 245 -69 17 -4 48 -13 70 -19 22 -7 80 -23
129 -38 l89 -26 71 22 c39 13 111 36 160 51 95 31 212 63 401 110 201 50 257
66 320 89 33 13 74 26 90 30 17 5 94 26 173 49 78 23 163 46 190 52 84 20 217
47 235 48 16 1 17 -49 17 -921z m782 740 c23 -29 53 -63 65 -76 12 -12 20 -28
17 -35 -3 -6 -33 -32 -66 -55 -50 -36 -65 -42 -82 -34 -31 15 -136 94 -136
103 0 5 27 37 60 71 33 35 60 66 60 71 0 4 9 7 19 7 11 0 38 -23 63 -52z
m-1374 -363 c115 -62 166 -199 128 -340 -35 -131 -130 -251 -303 -381 l-73
-55 0 -94 c0 -55 -4 -97 -11 -100 -23 -15 -258 -92 -263 -87 -4 3 -6 74 -6
159 l0 154 163 167 c199 205 228 256 171 301 -83 65 -293 -18 -499 -196 -27
-24 -53 -43 -57 -43 -5 0 -8 52 -8 115 0 98 3 122 22 163 45 95 146 167 312
223 125 43 158 48 271 45 89 -2 107 -6 153 -31z m4470 -170 c115 -62 166 -199
128 -340 -35 -131 -130 -251 -303 -381 l-73 -55 0 -94 c0 -55 -4 -97 -11 -100
-23 -15 -258 -92 -263 -87 -4 3 -6 74 -6 159 l0 154 163 167 c199 205 228 256
171 301 -83 65 -293 -18 -499 -196 -27 -24 -53 -43 -57 -43 -5 0 -8 52 -8 115
0 98 3 122 22 163 45 95 146 167 312 223 125 43 158 48 271 45 89 -2 107 -6
153 -31z m-4718 -1104 l0 -119 -42 -16 c-200 -71 -219 -76 -226 -58 -3 9 -6
63 -7 120 l0 103 125 44 c69 24 131 44 138 44 9 1 12 -29 12 -118z m4470 -170
l0 -119 -42 -16 c-200 -71 -219 -76 -226 -58 -3 9 -6 63 -7 120 l0 103 125 44
c69 24 131 44 138 44 9 1 12 -29 12 -118z"/>
<path d="M5113 7130 c-66 -15 -118 -68 -111 -112 2 -19 12 -25 63 -36 33 -7
90 -19 127 -27 37 -8 106 -33 153 -55 46 -22 96 -40 109 -40 30 0 66 46 66 84
0 62 -146 163 -269 186 -61 11 -92 11 -138 0z"/>
<path d="M4170 7041 c-75 -20 -141 -52 -170 -83 -26 -28 -26 -79 0 -103 19
-17 26 -18 78 -6 115 27 198 40 249 41 82 0 103 12 103 58 0 98 -103 135 -260
93z"/>
<path d="M3910 6634 c-94 -41 -137 -186 -96 -327 9 -30 25 -65 36 -78 l19 -24
1 22 c0 32 38 63 77 63 31 0 33 -2 33 -34 0 -42 -20 -59 -65 -54 -23 3 -35 0
-35 -8 0 -15 48 -54 66 -54 20 0 17 -28 -3 -32 -15 -3 -15 -6 6 -24 26 -25 72
-37 109 -28 92 22 148 169 123 321 -35 210 -143 312 -271 257z m76 -105 c23
-25 26 -127 5 -152 -15 -19 -81 -23 -112 -7 -35 19 -22 136 19 166 26 20 67
17 88 -7z"/>
<path d="M4974 6627 c-77 -29 -123 -96 -144 -208 -13 -75 -1 -168 31 -230 27
-54 35 -55 51 -7 16 51 67 85 111 74 24 -6 27 -11 27 -51 0 -48 3 -46 -82 -60
-48 -7 -48 -18 -1 -42 50 -25 54 -43 9 -43 -20 0 -36 -4 -36 -9 0 -18 54 -62
90 -72 124 -37 230 105 230 308 0 239 -133 397 -286 340z m76 -115 c31 -31 46
-86 36 -127 -14 -54 -126 -86 -168 -48 -21 19 -25 100 -7 136 37 72 91 87 139
39z"/>
<path d="M6163 5718 c-32 -15 -29 -22 18 -43 53 -24 71 -50 63 -93 -8 -41 5
-52 59 -52 55 0 92 38 84 87 -11 66 -80 114 -161 112 -22 0 -51 -5 -63 -11z"/>
<path d="M4193 5410 c-113 -19 -246 -62 -284 -90 -13 -10 -22 -21 -19 -23 3
-2 61 5 130 15 166 26 405 28 517 5 161 -33 265 -79 415 -183 101 -71 122 -73
71 -5 -123 162 -277 252 -486 286 -118 19 -217 18 -344 -5z"/>
<path d="M5023 3628 c-67 -32 -198 -68 -248 -68 -16 0 -43 7 -59 15 -35 18
-56 13 -56 -13 0 -37 28 -47 129 -47 90 0 100 2 171 37 41 20 91 53 109 72 42
43 35 44 -46 4z"/>
<path d="M4670 3325 c-26 -31 13 -82 44 -56 21 17 21 57 0 65 -23 9 -30 8 -44
-9z"/>
</g>
</svg>
