<?xml version="1.0" standalone="no"?>
<!DOCTYPE svg PUBLIC "-//W3C//DTD SVG 20010904//EN"
 "http://www.w3.org/TR/2001/REC-SVG-20010904/DTD/svg10.dtd">
<svg version="1.0" xmlns="http://www.w3.org/2000/svg"
 width="512.000000pt" height="512.000000pt" viewBox="0 0 512.000000 512.000000"
 preserveAspectRatio="xMidYMid meet">

<g transform="translate(0.000000,512.000000) scale(0.100000,-0.100000)"
fill="#000000" stroke="none">
<path d="M2497 4500 c-142 -220 -159 -314 -75 -407 l20 -21 -47 -43 c-26 -24
-53 -55 -60 -70 l-14 -26 -85 34 c-163 65 -317 105 -475 123 -203 23 -498 -40
-767 -164 -43 -20 -82 -42 -86 -49 -13 -20 -9 -65 8 -81 23 -24 58 -20 143 18
161 71 363 129 512 147 164 20 362 -16 610 -112 126 -49 126 -49 138 -90 7
-22 28 -58 48 -80 l36 -40 -16 -35 c-16 -32 -17 -135 -17 -1208 l0 -1173 -72
-7 c-46 -4 -92 -16 -125 -32 -64 -31 -137 -110 -160 -174 l-17 -47 -82 -6
c-180 -11 -298 -126 -311 -303 l-6 -74 963 0 963 0 -6 74 c-9 123 -64 210
-168 266 -50 27 -76 33 -143 37 l-82 6 -17 48 c-23 65 -104 151 -166 178 -27
11 -81 24 -120 27 l-71 7 0 1173 c0 1073 -1 1176 -17 1208 l-16 35 36 40 c20
22 41 58 48 80 12 41 12 41 138 90 224 86 437 130 575 116 152 -14 349 -68
533 -146 100 -42 133 -47 157 -23 17 16 21 61 8 81 -4 7 -43 29 -86 49 -269
124 -564 187 -767 164 -157 -18 -311 -57 -467 -120 l-93 -38 -14 27 c-7 15
-34 46 -60 70 l-47 43 20 21 c62 69 67 141 17 245 -34 71 -145 252 -155 252
-3 0 -31 -40 -63 -90z m98 -204 c33 -67 30 -105 -7 -126 -25 -13 -31 -13 -55
0 -18 10 -29 26 -31 43 -4 30 41 137 57 137 5 0 21 -24 36 -54z m24 -344 c38
-20 71 -73 71 -112 0 -14 -8 -41 -18 -59 -20 -38 -73 -71 -112 -71 -62 0 -130
68 -130 130 0 62 68 130 130 130 14 0 41 -8 59 -18z m-11 -384 c9 -9 12 -299
12 -1244 l0 -1232 128 -3 c120 -4 131 -6 169 -31 58 -38 84 -86 91 -164 l5
-64 116 0 c97 0 121 -3 147 -19 34 -21 84 -80 84 -99 0 -9 -202 -12 -800 -12
-886 0 -830 -5 -769 65 51 57 74 65 202 65 l114 0 6 65 c6 77 36 130 94 166
34 21 52 24 166 28 l127 3 0 1232 c0 945 3 1235 12 1244 7 7 28 12 48 12 20 0
41 -5 48 -12z"/>
<path d="M2260 940 c-28 -28 -23 -67 12 -93 23 -17 31 -19 53 -9 14 6 31 23
37 37 10 22 8 30 -9 53 -26 35 -65 40 -93 12z"/>
<path d="M2522 944 c-34 -23 -27 -83 11 -104 24 -13 30 -13 55 0 37 21 44 81
10 104 -28 20 -48 20 -76 0z"/>
<path d="M2771 934 c-27 -34 -26 -50 4 -79 29 -30 45 -31 79 -4 31 25 34 61 6
89 -28 28 -64 25 -89 -6z"/>
<path d="M828 3679 c-28 -16 -24 -83 5 -102 20 -13 28 -13 55 -1 28 11 32 18
32 50 0 54 -46 81 -92 53z"/>
<path d="M1016 3675 c-29 -30 -30 -55 -1 -85 38 -39 86 -26 100 27 12 51 -61
95 -99 58z"/>
<path d="M4028 3679 c-28 -16 -24 -83 5 -102 20 -13 28 -13 55 -1 28 11 32 18
32 50 0 54 -46 81 -92 53z"/>
<path d="M4216 3675 c-29 -30 -30 -55 -1 -85 38 -39 86 -26 100 27 12 51 -61
95 -99 58z"/>
<path d="M732 3444 c-28 -11 -32 -18 -32 -52 0 -48 33 -72 78 -56 23 8 27 16
30 50 2 34 -1 44 -21 56 -20 14 -28 14 -55 2z"/>
<path d="M1150 3450 c-28 -7 -54 -51 -45 -79 8 -25 49 -45 78 -38 26 7 51 50
42 76 -9 27 -48 48 -75 41z"/>
<path d="M3932 3444 c-28 -11 -32 -18 -32 -52 0 -48 33 -72 78 -56 23 8 27 16
30 50 2 34 -1 44 -21 56 -20 14 -28 14 -55 2z"/>
<path d="M4350 3450 c-28 -7 -54 -51 -45 -79 8 -25 49 -45 78 -38 26 7 51 50
42 76 -9 27 -48 48 -75 41z"/>
<path d="M623 3205 c-29 -12 -33 -19 -33 -53 0 -31 5 -41 25 -52 51 -27 108
15 90 66 -16 42 -43 56 -82 39z"/>
<path d="M1262 3212 c-27 -4 -55 -43 -50 -72 4 -29 49 -55 81 -47 26 7 51 56
41 80 -9 21 -48 43 -72 39z"/>
<path d="M3823 3205 c-29 -12 -33 -19 -33 -53 0 -31 5 -41 25 -52 51 -27 108
15 90 66 -16 42 -43 56 -82 39z"/>
<path d="M4462 3212 c-27 -4 -55 -43 -50 -72 4 -29 49 -55 81 -47 26 7 51 56
41 80 -9 21 -48 43 -72 39z"/>
<path d="M512 2964 c-30 -12 -33 -17 -30 -51 2 -29 9 -41 31 -53 24 -13 30
-13 55 0 20 12 28 25 30 50 2 29 -2 38 -25 52 -25 14 -32 15 -61 2z"/>
<path d="M1362 2973 c-44 -9 -56 -82 -16 -108 36 -23 77 -12 91 26 10 26 8 33
-14 59 -13 17 -28 29 -31 29 -4 -1 -17 -4 -30 -6z"/>
<path d="M3712 2964 c-30 -12 -33 -17 -30 -51 2 -29 9 -41 31 -53 24 -13 30
-13 55 0 20 12 28 25 30 50 2 29 -2 38 -25 52 -25 14 -32 15 -61 2z"/>
<path d="M4562 2973 c-44 -9 -56 -82 -16 -108 36 -23 77 -12 91 26 10 26 8 33
-14 59 -13 17 -28 29 -31 29 -4 -1 -17 -4 -30 -6z"/>
<path d="M402 2725 c-30 -13 -33 -18 -30 -52 2 -28 10 -41 29 -52 62 -35 124
57 67 101 -27 21 -25 21 -66 3z"/>
<path d="M1475 2733 c-49 -11 -62 -80 -20 -107 32 -21 51 -20 75 4 27 27 25
62 -3 88 -13 12 -25 21 -28 21 -2 -1 -13 -3 -24 -6z"/>
<path d="M3602 2725 c-30 -13 -33 -18 -30 -52 2 -28 10 -41 29 -52 62 -35 124
57 67 101 -27 21 -25 21 -66 3z"/>
<path d="M4675 2733 c-49 -11 -62 -80 -20 -107 32 -21 51 -20 75 4 27 27 25
62 -3 88 -13 12 -25 21 -28 21 -2 -1 -13 -3 -24 -6z"/>
<path d="M293 2490 c-23 -9 -38 -45 -31 -75 1 -9 15 -23 29 -32 22 -14 30 -14
55 -2 40 19 47 79 12 103 -25 18 -33 19 -65 6z"/>
<path d="M1577 2493 c-20 -5 -45 -51 -40 -73 2 -8 15 -23 29 -33 35 -26 76
-11 88 32 8 27 5 35 -14 56 -23 25 -30 27 -63 18z"/>
<path d="M3493 2490 c-23 -9 -38 -45 -31 -75 1 -9 15 -23 29 -32 22 -14 30
-14 55 -2 40 19 47 79 12 103 -25 18 -33 19 -65 6z"/>
<path d="M4777 2493 c-20 -5 -45 -51 -40 -73 2 -8 15 -23 29 -33 35 -26 76
-11 88 32 8 27 5 35 -14 56 -23 25 -30 27 -63 18z"/>
<path d="M260 2238 l0 -62 -30 29 c-16 16 -33 26 -36 22 -14 -14 26 -174 62
-246 71 -144 222 -263 384 -302 77 -20 563 -19 640 0 224 55 392 232 437 459
9 45 13 85 9 89 -3 4 -20 -6 -36 -22 l-30 -29 0 62 0 62 -700 0 -700 0 0 -62z
m1317 -97 c-20 -152 -180 -310 -346 -341 -70 -13 -473 -13 -541 0 -167 32
-327 188 -347 339 l-6 41 623 0 623 0 -6 -39z"/>
<path d="M3460 2238 l0 -62 -30 29 c-16 16 -33 26 -36 22 -14 -14 26 -174 62
-246 71 -144 222 -263 384 -302 77 -20 563 -19 640 0 224 55 392 232 437 459
9 45 13 85 9 89 -3 4 -20 -6 -36 -22 l-30 -29 0 62 0 62 -700 0 -700 0 0 -62z
m1317 -97 c-20 -152 -180 -310 -346 -341 -70 -13 -473 -13 -541 0 -167 32
-327 188 -347 339 l-6 41 623 0 623 0 -6 -39z"/>
</g>
</svg>
